<mxfile host="app.diagrams.net" agent="Mozilla/5.0 (Macintosh; Intel Mac OS X 10_15_7) AppleWebKit/605.1.15 (KHTML, like Gecko) Version/18.0.1 Safari/605.1.15 Ddg/18.0.1" version="24.8.3">
  <diagram name="Page-1" id="3vYE8z8AcommCCEMgqKF">
    <mxGraphModel dx="820" dy="550" grid="1" gridSize="10" guides="1" tooltips="1" connect="1" arrows="1" fold="1" page="1" pageScale="1" pageWidth="827" pageHeight="1169" math="0" shadow="0">
      <root>
        <mxCell id="0" />
        <mxCell id="1" parent="0" />
        <mxCell id="rjcDLvDcxJaPnUba-sbS-6" style="edgeStyle=orthogonalEdgeStyle;rounded=0;orthogonalLoop=1;jettySize=auto;html=1;exitX=0.5;exitY=1;exitDx=0;exitDy=0;entryX=0.5;entryY=0;entryDx=0;entryDy=0;" edge="1" parent="1" source="rjcDLvDcxJaPnUba-sbS-1" target="rjcDLvDcxJaPnUba-sbS-2">
          <mxGeometry relative="1" as="geometry" />
        </mxCell>
        <mxCell id="rjcDLvDcxJaPnUba-sbS-7" style="edgeStyle=orthogonalEdgeStyle;rounded=0;orthogonalLoop=1;jettySize=auto;html=1;exitX=0.5;exitY=1;exitDx=0;exitDy=0;entryX=0.5;entryY=0;entryDx=0;entryDy=0;" edge="1" parent="1" source="rjcDLvDcxJaPnUba-sbS-1" target="rjcDLvDcxJaPnUba-sbS-3">
          <mxGeometry relative="1" as="geometry" />
        </mxCell>
        <mxCell id="rjcDLvDcxJaPnUba-sbS-8" style="edgeStyle=orthogonalEdgeStyle;rounded=0;orthogonalLoop=1;jettySize=auto;html=1;exitX=0.5;exitY=1;exitDx=0;exitDy=0;entryX=0.5;entryY=0;entryDx=0;entryDy=0;" edge="1" parent="1" source="rjcDLvDcxJaPnUba-sbS-1" target="rjcDLvDcxJaPnUba-sbS-4">
          <mxGeometry relative="1" as="geometry" />
        </mxCell>
        <mxCell id="rjcDLvDcxJaPnUba-sbS-1" value="Space" style="rounded=0;whiteSpace=wrap;html=1;" vertex="1" parent="1">
          <mxGeometry x="360" y="40" width="120" height="60" as="geometry" />
        </mxCell>
        <mxCell id="rjcDLvDcxJaPnUba-sbS-38" style="edgeStyle=orthogonalEdgeStyle;rounded=0;orthogonalLoop=1;jettySize=auto;html=1;exitX=0.5;exitY=1;exitDx=0;exitDy=0;endArrow=none;endFill=0;" edge="1" parent="1" source="rjcDLvDcxJaPnUba-sbS-2">
          <mxGeometry relative="1" as="geometry">
            <mxPoint x="420" y="280" as="targetPoint" />
          </mxGeometry>
        </mxCell>
        <mxCell id="rjcDLvDcxJaPnUba-sbS-2" value="Login" style="rounded=0;whiteSpace=wrap;html=1;" vertex="1" parent="1">
          <mxGeometry x="200" y="160" width="120" height="60" as="geometry" />
        </mxCell>
        <mxCell id="rjcDLvDcxJaPnUba-sbS-39" style="edgeStyle=orthogonalEdgeStyle;rounded=0;orthogonalLoop=1;jettySize=auto;html=1;exitX=0.5;exitY=1;exitDx=0;exitDy=0;endArrow=none;endFill=0;" edge="1" parent="1" source="rjcDLvDcxJaPnUba-sbS-3">
          <mxGeometry relative="1" as="geometry">
            <mxPoint x="420.04761904761904" y="280" as="targetPoint" />
          </mxGeometry>
        </mxCell>
        <mxCell id="rjcDLvDcxJaPnUba-sbS-3" value="Create Account" style="rounded=0;whiteSpace=wrap;html=1;" vertex="1" parent="1">
          <mxGeometry x="360" y="160" width="120" height="60" as="geometry" />
        </mxCell>
        <mxCell id="rjcDLvDcxJaPnUba-sbS-40" style="edgeStyle=orthogonalEdgeStyle;rounded=0;orthogonalLoop=1;jettySize=auto;html=1;exitX=0.5;exitY=1;exitDx=0;exitDy=0;endArrow=none;endFill=0;" edge="1" parent="1" source="rjcDLvDcxJaPnUba-sbS-4">
          <mxGeometry relative="1" as="geometry">
            <mxPoint x="420" y="280" as="targetPoint" />
          </mxGeometry>
        </mxCell>
        <mxCell id="rjcDLvDcxJaPnUba-sbS-4" value="Guest" style="rounded=0;whiteSpace=wrap;html=1;" vertex="1" parent="1">
          <mxGeometry x="520" y="160" width="120" height="60" as="geometry" />
        </mxCell>
        <mxCell id="rjcDLvDcxJaPnUba-sbS-10" value="Start" style="rounded=0;whiteSpace=wrap;html=1;" vertex="1" parent="1">
          <mxGeometry x="240" y="320" width="120" height="60" as="geometry" />
        </mxCell>
        <mxCell id="rjcDLvDcxJaPnUba-sbS-11" value="Leaderboard" style="rounded=0;whiteSpace=wrap;html=1;" vertex="1" parent="1">
          <mxGeometry x="480" y="320" width="120" height="60" as="geometry" />
        </mxCell>
        <mxCell id="rjcDLvDcxJaPnUba-sbS-29" style="edgeStyle=orthogonalEdgeStyle;rounded=0;orthogonalLoop=1;jettySize=auto;html=1;entryX=0.5;entryY=0;entryDx=0;entryDy=0;exitX=0.5;exitY=1;exitDx=0;exitDy=0;" edge="1" parent="1" target="rjcDLvDcxJaPnUba-sbS-31" source="rjcDLvDcxJaPnUba-sbS-11">
          <mxGeometry relative="1" as="geometry">
            <mxPoint x="530" y="410" as="sourcePoint" />
          </mxGeometry>
        </mxCell>
        <mxCell id="rjcDLvDcxJaPnUba-sbS-30" style="edgeStyle=orthogonalEdgeStyle;rounded=0;orthogonalLoop=1;jettySize=auto;html=1;entryX=0.5;entryY=0;entryDx=0;entryDy=0;exitX=0.5;exitY=1;exitDx=0;exitDy=0;" edge="1" parent="1" target="rjcDLvDcxJaPnUba-sbS-32" source="rjcDLvDcxJaPnUba-sbS-11">
          <mxGeometry relative="1" as="geometry">
            <mxPoint x="540" y="400" as="sourcePoint" />
          </mxGeometry>
        </mxCell>
        <mxCell id="rjcDLvDcxJaPnUba-sbS-31" value="Sort by Score" style="rounded=0;whiteSpace=wrap;html=1;" vertex="1" parent="1">
          <mxGeometry x="400" y="440" width="120" height="60" as="geometry" />
        </mxCell>
        <mxCell id="rjcDLvDcxJaPnUba-sbS-32" value="Sort by Moves" style="rounded=0;whiteSpace=wrap;html=1;" vertex="1" parent="1">
          <mxGeometry x="560" y="440" width="120" height="60" as="geometry" />
        </mxCell>
        <mxCell id="rjcDLvDcxJaPnUba-sbS-41" style="edgeStyle=orthogonalEdgeStyle;rounded=0;orthogonalLoop=1;jettySize=auto;html=1;entryX=0.5;entryY=0;entryDx=0;entryDy=0;" edge="1" parent="1" target="rjcDLvDcxJaPnUba-sbS-10">
          <mxGeometry relative="1" as="geometry">
            <mxPoint x="430" y="290" as="targetPoint" />
            <mxPoint x="420" y="280" as="sourcePoint" />
          </mxGeometry>
        </mxCell>
        <mxCell id="rjcDLvDcxJaPnUba-sbS-42" style="edgeStyle=orthogonalEdgeStyle;rounded=0;orthogonalLoop=1;jettySize=auto;html=1;entryX=0.5;entryY=0;entryDx=0;entryDy=0;" edge="1" parent="1" target="rjcDLvDcxJaPnUba-sbS-11">
          <mxGeometry relative="1" as="geometry">
            <mxPoint x="310" y="330" as="targetPoint" />
            <mxPoint x="420" y="280" as="sourcePoint" />
          </mxGeometry>
        </mxCell>
      </root>
    </mxGraphModel>
  </diagram>
</mxfile>
